<svg width="32" height="19" viewBox="0 0 32 19" fill="none" xmlns="http://www.w3.org/2000/svg">
<path d="M15.832 1.85439L9.09495 6.56978C8.16307 7.22084 7.93658 8.50206 8.58764 9.43478C9.2387 10.3667 10.5199 10.5931 11.4526 9.94209L18.1897 5.2267C20.9787 3.27352 24.8307 3.95216 26.7772 6.74111C28.7304 9.53005 28.0518 13.3821 25.2628 15.3286L23.145 16.8087C24.8993 19.7899 28.8675 18.5354 30.6702 15.3353C32.5549 11.9905 32.4863 7.72146 30.1428 4.37673C26.8926 -0.263432 20.4714 -1.39422 15.832 1.85439Z" fill="#005AE1"/>
<path d="M16.1671 16.6776L22.9042 11.9622C23.836 11.3112 24.0625 10.03 23.4115 9.09724C22.7604 8.16536 21.4792 7.93887 20.5465 8.58993L13.8094 13.3053C11.0204 15.2585 7.1684 14.5799 5.22191 11.7909C3.26873 9.00196 3.94737 5.14992 6.73631 3.20343L8.85414 1.72329C7.1007 -1.25705 3.1325 -0.00256691 1.32975 3.19758C-0.554895 6.54231 -0.486362 10.8114 1.85712 14.1561C5.10574 18.7955 11.5269 19.9338 16.1671 16.6785V16.6776Z" fill="#005AE1"/>
</svg>
